<?xml version="1.0" standalone="no"?>
<svg xmlns="http://www.w3.org/2000/svg" width="665" height="665" viewBox="0 0 665 665"><g transform="translate(0, 0)"><circle cx="47.5" cy="47.5" r="47.5" fill="#F2F2F2" class="circle visibleShape"/></g><g transform="translate(95, 0)"><circle cx="47.5" cy="47.5" r="47.5" fill="#F2F2F2" class="circle visibleShape"/></g><g transform="translate(190, 0)"><circle cx="47.5" cy="47.5" r="47.5" fill="#F2F2F2" class="circle visibleShape" data-fill-color="#1b3ba9" style="fill: rgb(27, 59, 169);"/></g><g transform="translate(285, 0)"><circle cx="47.5" cy="47.5" r="47.5" fill="#F2F2F2" class="circle visibleShape" data-fill-color="#1b3ba9" style="fill: rgb(27, 59, 169);"/></g><g transform="translate(380, 0)"><circle cx="47.5" cy="47.5" r="47.5" fill="#F2F2F2" class="circle visibleShape" data-fill-color="#1b3ba9" style="fill: rgb(27, 59, 169);"/></g><g transform="translate(475, 0)"><circle cx="47.5" cy="47.5" r="47.5" fill="#F2F2F2" class="circle visibleShape"/></g><g transform="translate(570, 0)"><circle cx="47.5" cy="47.5" r="47.5" fill="#F2F2F2" class="circle visibleShape"/></g><g transform="translate(0, 95)"><circle cx="47.5" cy="47.5" r="47.5" fill="#F2F2F2" class="circle visibleShape"/></g><g transform="translate(95, 95)"><circle cx="47.5" cy="47.5" r="47.5" fill="#F2F2F2" class="circle visibleShape"/></g><g transform="translate(190, 95)"><circle cx="47.5" cy="47.5" r="47.5" fill="#F2F2F2" class="circle visibleShape" data-fill-color="#1b3ba9" style="fill: rgb(27, 59, 169);"/></g><g transform="translate(285, 95)"><circle cx="47.5" cy="47.5" r="47.5" fill="#F2F2F2" class="circle visibleShape" data-fill-color="#1b3ba9" style="fill: rgb(27, 59, 169);"/></g><g transform="translate(380, 95)"><circle cx="47.5" cy="47.5" r="47.5" fill="#F2F2F2" class="circle visibleShape" data-fill-color="#1b3ba9" style="fill: rgb(27, 59, 169);"/></g><g transform="translate(475, 95)"><circle cx="47.5" cy="47.5" r="47.5" fill="#F2F2F2" class="circle visibleShape"/></g><g transform="translate(570, 95)"><circle cx="47.5" cy="47.5" r="47.5" fill="#F2F2F2" class="circle visibleShape"/></g><g transform="translate(0, 190)"><circle cx="47.5" cy="47.5" r="47.5" fill="#F2F2F2" class="circle visibleShape"/></g><g transform="translate(95, 190)"><circle cx="47.5" cy="47.5" r="47.5" fill="#F2F2F2" class="circle visibleShape" data-fill-color="#484848" style="fill: rgb(72, 72, 72);"/></g><g transform="translate(190, 190)"><circle cx="47.5" cy="47.5" r="47.5" fill="#F2F2F2" class="circle visibleShape" data-fill-color="#1b3ba9" style="fill: rgb(27, 59, 169);"/></g><g transform="translate(285, 190)"><circle cx="47.5" cy="47.5" r="47.5" fill="#F2F2F2" class="circle visibleShape" data-fill-color="#1b3ba9" style="fill: rgb(27, 59, 169);"/></g><g transform="translate(380, 190)"><circle cx="47.5" cy="47.5" r="47.5" fill="#F2F2F2" class="circle visibleShape" data-fill-color="#1b3ba9" style="fill: rgb(27, 59, 169);"/></g><g transform="translate(475, 190)"><circle cx="47.5" cy="47.5" r="47.5" fill="#F2F2F2" class="circle visibleShape" data-fill-color="#484848" style="fill: rgb(72, 72, 72);"/></g><g transform="translate(570, 190)"><circle cx="47.5" cy="47.5" r="47.5" fill="#F2F2F2" class="circle visibleShape"/></g><g transform="translate(0, 285)"><circle cx="47.5" cy="47.5" r="47.5" fill="#F2F2F2" class="circle visibleShape"/></g><g transform="translate(95, 285)"><circle cx="47.5" cy="47.5" r="47.5" fill="#F2F2F2" class="circle visibleShape"/></g><g transform="translate(190, 285)"><circle cx="47.5" cy="47.5" r="47.5" fill="#F2F2F2" class="circle visibleShape" data-fill-color="#1b3ba9" style="fill: rgb(27, 59, 169);"/></g><g transform="translate(285, 285)"><circle cx="47.5" cy="47.5" r="47.5" fill="#F2F2F2" class="circle visibleShape" data-fill-color="#1b3ba9" style="fill: rgb(27, 59, 169);"/></g><g transform="translate(380, 285)"><circle cx="47.5" cy="47.5" r="47.5" fill="#F2F2F2" class="circle visibleShape" data-fill-color="#1b3ba9" style="fill: rgb(27, 59, 169);"/></g><g transform="translate(475, 285)"><circle cx="47.5" cy="47.5" r="47.5" fill="#F2F2F2" class="circle visibleShape"/></g><g transform="translate(570, 285)"><circle cx="47.5" cy="47.5" r="47.5" fill="#F2F2F2" class="circle visibleShape"/></g><g transform="translate(0, 380)"><circle cx="47.5" cy="47.5" r="47.5" fill="#F2F2F2" class="circle visibleShape"/></g><g transform="translate(95, 380)"><circle cx="47.5" cy="47.5" r="47.5" fill="#F2F2F2" class="circle visibleShape"/></g><g transform="translate(190, 380)"><circle cx="47.5" cy="47.5" r="47.5" fill="#F2F2F2" class="circle visibleShape"/></g><g transform="translate(285, 380)"><circle cx="47.5" cy="47.5" r="47.5" fill="#F2F2F2" class="circle visibleShape" data-fill-color="#a5a5a5" style="fill: rgb(165, 165, 165);"/></g><g transform="translate(380, 380)"><circle cx="47.5" cy="47.5" r="47.5" fill="#F2F2F2" class="circle visibleShape"/></g><g transform="translate(475, 380)"><circle cx="47.5" cy="47.5" r="47.5" fill="#F2F2F2" class="circle visibleShape"/></g><g transform="translate(570, 380)"><circle cx="47.5" cy="47.5" r="47.5" fill="#F2F2F2" class="circle visibleShape"/></g><g transform="translate(0, 475)"><circle cx="47.5" cy="47.5" r="47.5" fill="#F2F2F2" class="circle visibleShape"/></g><g transform="translate(95, 475)"><circle cx="47.5" cy="47.5" r="47.5" fill="#F2F2F2" class="circle visibleShape"/></g><g transform="translate(190, 475)"><circle cx="47.5" cy="47.5" r="47.5" fill="#F2F2F2" class="circle visibleShape" data-fill-color="#a5a5a5" style="fill: rgb(165, 165, 165);"/></g><g transform="translate(285, 475)"><circle cx="47.5" cy="47.5" r="47.5" fill="#F2F2F2" class="circle visibleShape" data-fill-color="#a5a5a5" style="fill: rgb(165, 165, 165);"/></g><g transform="translate(380, 475)"><circle cx="47.5" cy="47.5" r="47.5" fill="#F2F2F2" class="circle visibleShape" data-fill-color="#a5a5a5" style="fill: rgb(165, 165, 165);"/></g><g transform="translate(475, 475)"><circle cx="47.5" cy="47.5" r="47.5" fill="#F2F2F2" class="circle visibleShape"/></g><g transform="translate(570, 475)"><circle cx="47.5" cy="47.5" r="47.5" fill="#F2F2F2" class="circle visibleShape"/></g><g transform="translate(0, 570)"><circle cx="47.5" cy="47.5" r="47.5" fill="#F2F2F2" class="circle visibleShape"/></g><g transform="translate(95, 570)"><circle cx="47.5" cy="47.5" r="47.5" fill="#F2F2F2" class="circle visibleShape" data-fill-color="#484848" style="fill: rgb(72, 72, 72);"/></g><g transform="translate(190, 570)"><circle cx="47.5" cy="47.5" r="47.5" fill="#F2F2F2" class="circle visibleShape" data-fill-color="#f2f2f2" style="fill: rgb(242, 242, 242);"/></g><g transform="translate(285, 570)"><circle cx="47.5" cy="47.5" r="47.5" fill="#F2F2F2" class="circle visibleShape" data-fill-color="#484848" style="fill: rgb(72, 72, 72);"/></g><g transform="translate(380, 570)"><circle cx="47.5" cy="47.5" r="47.5" fill="#F2F2F2" class="circle visibleShape" data-fill-color="#f2f2f2" style="fill: rgb(242, 242, 242);"/></g><g transform="translate(475, 570)"><circle cx="47.5" cy="47.5" r="47.5" fill="#F2F2F2" class="circle visibleShape" data-fill-color="#484848" style="fill: rgb(72, 72, 72);"/></g><g transform="translate(570, 570)"><circle cx="47.5" cy="47.5" r="47.5" fill="#F2F2F2" class="circle visibleShape"/></g></svg>